<svg width="522" height="429" viewBox="0 0 522 429" fill="none" xmlns="http://www.w3.org/2000/svg">
<path d="M570.47 -76.3187C573.678 -88.7756 576.309 -101.361 577.849 -114.331C577.849 -116.643 578.491 -119.083 578.042 -121.78C576.823 -141.172 557.058 -147.785 540.887 -147.015C531.005 -145.859 523.368 -139.566 516.374 -132.696C430.706 -202.557 309.873 -228.37 195.649 -180.661C33.9393 -114.203 -44.2205 76.6955 25.6613 237.158C73.4042 352.417 194.302 431.139 318.408 428.956C487.24 429.277 633.036 284.995 632.972 115.8C633.934 42.5996 610.127 -23.409 570.47 -76.3187ZM141.81 52.2312C141.81 52.2312 141.81 51.7176 141.81 51.3965C141.81 51.846 141.81 52.167 141.81 52.4239C141.81 52.2954 141.81 52.2312 141.81 52.2312ZM142.644 51.6534C143.093 50.626 143.735 49.5344 144.569 48.4428C144.12 49.2133 143.35 50.4333 142.644 51.6534ZM318.343 -158.444C381.166 -159.215 439.947 -138.154 487.305 -102.452C461.893 -74.7134 438.342 -45.947 415.754 -15.4469C382.899 29.6933 347.413 84.9145 310.579 131.082C318.6 69.1187 350.878 -45.7544 296.269 -61.9997C277.916 -65.8523 268.162 -58.9176 256.29 -49.9281C244.676 -39.847 234.472 -28.867 225.104 -17.4375C227.863 -24.5648 230.558 -31.6922 232.291 -36.508C240.825 -59.6239 252.376 -91.8577 260.397 -115.551C264.504 -128.265 269.06 -140.979 271.627 -154.335C286.771 -156.967 302.429 -158.444 318.472 -158.444H318.343ZM200.462 -131.733C183.97 -81.8408 168.441 -29.8943 150.088 18.328C147.072 25.969 145.724 34.8943 143.735 42.8565C142.965 46.067 142.516 46.5807 141.938 50.4976C141.938 50.8186 141.938 51.0754 141.938 51.3323C141.938 51.3323 141.938 51.3323 141.938 51.5249C141.938 51.5249 141.874 52.4239 141.81 53.3228C140.976 54.7997 140.527 55.6986 141.361 54.5428L140.783 56.2765C137.254 69.5039 111.842 149.703 107.35 164.728C99.7142 188.101 92.3345 212.052 83.5432 234.847C81.0405 240.754 78.5379 246.661 76.4202 252.826C70.9657 242.873 66.0888 232.663 61.9177 222.133C4.99835 81.3829 74.816 -71.3745 200.462 -131.797V-131.733ZM210.986 375.276C170.366 358.067 134.366 330.649 106.324 296.81C112.099 294.691 117.169 290.517 120.377 286.023C132.57 266.503 143.029 241.974 151.115 222.069C168.826 180.653 191.863 139.686 214.772 100.197C232.098 71.4302 249.103 41.7007 270.665 15.9522C269.766 28.0238 267.969 40.2238 266.365 51.2039C262.387 81.1903 256.355 112.397 253.595 144.952C252.504 164.279 249.681 185.79 259.756 204.09C267.199 218.665 287.862 224.509 302.108 217.51C314.493 212.18 323.541 202.035 332.012 192.789C353.637 168.132 371.412 142.704 390.279 116.506C424.546 67.6418 462.791 11.2006 503.411 -37.407C502.32 -33.9396 501.358 -30.408 500.203 -26.9406C484.93 21.8595 466.128 81.6398 451.818 130.568C430.385 211.41 413.123 292.058 399.712 374.377C399.519 376.11 399.006 380.22 399.006 381.953C398.878 383.43 399.006 384.843 399.134 386.256C340.226 403.785 274.515 402.051 211.05 375.147L210.986 375.276ZM448.289 366.479C456.759 318.385 468.888 269.777 480.053 222.261C499.497 136.925 529.978 56.0197 556.288 -27.3901C582.534 14.4111 597.999 63.4681 598.256 115.864C599.796 228.361 536.588 320.568 448.289 366.479Z" fill="white" fill-opacity="0.1"/>
</svg>
