<svg width="53" height="54" viewBox="0 0 53 54" fill="none" xmlns="http://www.w3.org/2000/svg">
<path d="M47.7644 10.9602C48.0331 9.89924 48.2534 8.82731 48.3823 7.72256C48.3823 7.52567 48.4361 7.31785 48.3984 7.08815C48.2964 5.43649 46.6415 4.87318 45.2875 4.93881C44.4601 5.03725 43.8207 5.57322 43.2351 6.15841C36.0623 0.208076 25.9451 -1.99048 16.3814 2.07302C2.84168 7.73349 -3.70251 23.993 2.14858 37.6602C6.14601 47.4771 16.2685 54.1822 26.6597 53.9962C40.7958 54.0236 53.003 41.7346 52.9976 27.3236C53.0782 21.0889 51.0849 15.4667 47.7644 10.9602ZM11.8735 21.9093C11.8735 21.9093 11.8735 21.8655 11.8735 21.8382C11.8735 21.8765 11.8735 21.9038 11.8735 21.9257C11.8735 21.9148 11.8735 21.9093 11.8735 21.9093ZM11.9434 21.8601C11.981 21.7726 12.0347 21.6796 12.1045 21.5866C12.0669 21.6522 12.0025 21.7562 11.9434 21.8601ZM26.6543 3.96532C31.9144 3.89969 36.836 5.69354 40.8012 8.73433C38.6735 11.097 36.7017 13.5471 34.8104 16.1449C32.0595 19.9896 29.0883 24.693 26.0042 28.6253C26.6758 23.3476 29.3784 13.5635 24.8061 12.1798C23.2694 11.8517 22.4527 12.4424 21.4588 13.208C20.4863 14.0667 19.632 15.0019 18.8475 15.9754C19.0786 15.3683 19.3042 14.7612 19.4493 14.3511C20.1639 12.3822 21.131 9.63673 21.8026 7.61864C22.1465 6.53577 22.528 5.4529 22.7429 4.31534C24.0109 4.0911 25.3219 3.96532 26.6651 3.96532H26.6543ZM16.7843 6.24044C15.4035 10.4899 14.1033 14.9144 12.5666 19.0216C12.3141 19.6724 12.2013 20.4326 12.0347 21.1108C11.9702 21.3843 11.9326 21.428 11.8843 21.7616C11.8843 21.789 11.8843 21.8108 11.8843 21.8327C11.8843 21.8327 11.8843 21.8327 11.8843 21.8491C11.8843 21.8491 11.8789 21.9257 11.8735 22.0023C11.8037 22.128 11.7661 22.2046 11.8359 22.1062L11.7875 22.2538C11.492 23.3805 9.36437 30.2113 8.98827 31.4911C8.34889 33.4818 7.73101 35.5218 6.99493 37.4633C6.78538 37.9664 6.57584 38.4696 6.39853 38.9946C5.94184 38.1469 5.5335 37.2773 5.18426 36.3804C0.418503 24.3922 6.26421 11.3814 16.7843 6.23497V6.24044ZM17.6655 49.4241C14.2645 47.9584 11.2503 45.6231 8.9023 42.7409C9.38586 42.5604 9.81032 42.2049 10.079 41.8221C11.0998 40.1595 11.9756 38.0703 12.6526 36.3749C14.1355 32.8474 16.0644 29.3581 17.9825 25.9947C19.4332 23.5445 20.857 21.0124 22.6623 18.8193C22.5871 19.8475 22.4366 20.8866 22.3023 21.8218C21.9692 24.3758 21.4641 27.0338 21.2331 29.8066C21.1418 31.4528 20.9053 33.2849 21.7489 34.8436C22.3721 36.0851 24.1022 36.5828 25.295 35.9866C26.332 35.5327 27.0896 34.6686 27.7988 33.881C29.6094 31.7809 31.0977 29.6152 32.6774 27.3838C35.5465 23.2219 38.7487 18.4146 42.1498 14.2745C42.0584 14.5698 41.9778 14.8706 41.8811 15.1659C40.6024 19.3224 39.0281 24.4141 37.83 28.5815C36.0354 35.4671 34.5901 42.3362 33.4672 49.3475C33.4511 49.4952 33.4081 49.8452 33.4081 49.9929C33.3973 50.1187 33.4081 50.239 33.4188 50.3593C28.4865 51.8524 22.9847 51.7047 17.6709 49.4132L17.6655 49.4241ZM37.5345 48.6748C38.2437 44.5785 39.2592 40.4384 40.194 36.3913C41.822 29.123 44.3741 22.232 46.577 15.1277C48.7745 18.688 50.0694 22.8664 50.0909 27.3291C50.2199 36.9109 44.9276 44.7645 37.5345 48.6748Z" fill="white"/>
</svg>
