<svg width="32" height="28" viewBox="0 0 32 28" fill="none" xmlns="http://www.w3.org/2000/svg">
<path d="M13.054 0L13.298 0.732006C8.906 2.44001 3.41602 7.808 3.41602 12.932C3.41602 16.592 6.83203 16.958 8.78403 17.08C12.81 17.446 13.908 20.252 13.908 22.204C13.908 25.376 11.468 27.572 8.29602 27.572C4.02602 27.572 0 23.668 0 17.202C0 8.296 6.83202 1.83001 13.054 0ZM31.11 0L31.354 0.732006C26.962 2.44001 21.472 7.808 21.472 12.932C21.472 16.592 24.888 16.958 26.84 17.08C30.866 17.446 31.964 20.252 31.964 22.204C31.964 25.376 29.524 27.572 26.352 27.572C22.082 27.572 18.056 23.668 18.056 17.202C18.056 8.296 24.888 1.83001 31.11 0Z" fill="#7E7C8B"/>
</svg>
